<?xml version="1.0" standalone="no"?>
<!DOCTYPE svg PUBLIC "-//W3C//DTD SVG 20010904//EN"
 "http://www.w3.org/TR/2001/REC-SVG-20010904/DTD/svg10.dtd">
<svg version="1.0" xmlns="http://www.w3.org/2000/svg"
 width="260.000000pt" height="260.000000pt" viewBox="0 0 260.000000 260.000000"
 preserveAspectRatio="xMidYMid meet">
<metadata>
Created by potrace 1.11, written by Peter Selinger 2001-2013
</metadata>
<g transform="translate(0.000000,260.000000) scale(0.100000,-0.100000)"
fill="#000000" stroke="none">
<path d="M0 1300 l0 -1300 1300 0 1300 0 0 1300 0 1300 -1300 0 -1300 0 0
-1300z m2510 0 l0 -1220 -1215 0 -1215 0 0 1220 0 1220 1215 0 1215 0 0 -1220z"/>
<path d="M768 1583 c-3 -484 -4 -499 -24 -543 -12 -25 -32 -56 -44 -69 -76
-79 -235 -82 -316 -5 l-37 34 -51 -35 c-118 -82 -118 -80 -29 -149 94 -74 215
-104 346 -86 72 11 172 52 213 87 40 35 83 105 106 171 23 67 23 70 23 577 l0
510 -92 3 -92 3 -3 -498z"/>
<path d="M1287 2073 c-4 -3 -7 -305 -7 -670 l0 -663 95 0 95 0 2 282 3 283
283 3 282 2 0 -285 0 -285 95 0 95 0 0 670 0 671 -92 -3 -93 -3 -3 -292 -2
-293 -285 0 -285 0 0 295 0 295 -88 0 c-49 0 -92 -3 -95 -7z"/>
</g>
</svg>
